<?xml version="1.0" encoding="UTF-8"?>
<svg version="1.1" viewBox="0 0 2048 1228" width="1280" height="1280" xmlns="http://www.w3.org/2000/svg">
<path transform="translate(0)" d="m0 0h2048v1228h-2048z" fill="#FEFEFE"/>
<path transform="translate(1309,98)" d="m0 0h6l4 3-1 4-6 7h-2v7l-3 4-2 7-3 1-2 8-4 4-3 9-8 6-5 9-14 11-4 5-5 7-4 2 1 7 8 16 8 10 5 6 16 12 14 9 8 7 8 12 4 13v17l-4 16-9 19-10 15-11 14-14 15-13 13-8 7-17 14-16 12-23 16-35 21-22 12-23 12-36 16-28 11-37 13-36 10-8 3-3 2h-16l-2 7-6-1-3-1 1 5 3 1-1 3-4 2-2 4-7 3 1 5 4 3-8 6-2 4h-2l1 9 2 6 7 2v2h-7l-9-5-4-5-4-11-1-6 3-15 3-9v-3l-23 2h-40l-23-3-20-5-14-6-1-2h50l30-3 36-6 31-7 24-7 19-5 31-11 34-14 29-13 19-9 22-12 18-10 24-15 20-14 12-9 16-13 12-11 10-9 11-12 13-17 10-17 5-13 2-8v-20l-4-11-6-9-9-8-10-6-16-6-17-4-10-1 11 13 13 18 11 18 1 5v10l-2 8-3-3-15-24-10-15-11-14-11-12-7-8-10-9-16-13-21-14-18-10-20-9-30-10-18-4 5 4 6 3 2 5-16 1-13-3h-3l5 2-1 2h-2l3 5 9 1 3 1-3 2-17 2-2-3 1-1-18 2-1 5h-13l-7 4-5 2-6 8-18 5-8 5-1 3-1 13-2 5-5 1-2-6 1-9-3-3h-5l-5-2h-10l-3 2h-18l-7 3-5 1-6 9-4 4-2 7v10l2 3h13l10-8 13-1 1 3 2-1h13l12 6 5 2 9 4v3h8l10 2-2-4h6l10 3 4 4 1 6-1 1h-5l-4-4h-14l-5 1-2-2h-8l-2-1v-2l9 1-2-3-1 1h-8l-3-3h-6v-3l-14-7-8-2-10 4-2 3h-2l-2 6-2 4 14 1 5 4v5l-5 9v6l4 6 2 2 14-1 5 4v3l8-6 3-5 14-3 4-2h4l-2 6-3 3-1 6h4v-8l1-1h7l1-2 1 3 5 1v3l7 1 4 2 15 1v4l6 2 1 6 5 1 4 4v3l4 2 4 4 13 5 8 7 3 8 2 10-2 4-4 2 1 9h1l-1-4 1-3 9 1 1 4h2l8 4 5 5 1 5 5 1 6 3 6 2 6 4 6 11 8 5-1 8-4 9-7 6-6 3-5 6-4 1-3 10-5 4-36 18-27 12-28 11-36 12-28 8-6 1 1-4 5-10 1-3v-11l4-14 3-5 7-32-1-12-5-5-13-9-4-5-1-9-2-3v-5h-2l-1-2-2-14-4-7-3-4-1-6 2-4 6-2 2-5-5 1 1-9 6-8h5l2-5 7-4 2-15-1-1v-8l-7-1v6l-2 1-2-1-1-3-10-5-1-3-6-2-2-3v-5l-3-4v-5l-7-1-9-4-5-7-10-1-1 1-9-1-6-3v-2l-6-2-6-4 1-6 2-3 1-9-2-9v-9l3-6h-4l-3 12-2 16h-2l-2-7 1-5-1-4 3-2v-4l-14 12-10 9-8 7-8 8-18 22-12 18-12 21-12 23-12 27-1-4 8-27 9-22 8-17 10-17 11-16 10-13 9-10 7-8 12-12 11-9 12-10 21-14 18-10 23-11 25-9 27-7 25-4 11-1h45l25 3 25 6 26 9 24 11 19 11 16 11 14 11 12 11 14 14h26l-9-4-11-8-8-9-8-13-12-25-5-13-5-7-16-8-15-5 4-1 25 7 3 1h9l8-2h7l8 3 10 10 5 7 5-1 10-7 13-12 11-11 11-9 15-12 13-8 11-5z" fill="#006197"/>
<path transform="translate(1047,160)" d="m0 0 19 4 30 10 20 9 20 11 16 11 14 11 10 9 12 11 7 8 11 13 12 17 13 21 6 10 2-7v-10l-2-7-12-19-13-17-9-11v-1l11 1 17 4 16 6 14 9 7 7 6 10 3 9v20l-5 16-8 16-10 14-11 13-14 15-10 9-14 12-17 13-20 14-19 12-24 14-23 12-16 8-28 13-34 14-30 11-20 6-23 6-3-1 6-3 36-12 28-11 33-15 32-16 2-2 3-10 6-3 4-5 10-6 3-3 4-12v-4l-8-5-6-11-6-4-9-3-7-3-3-6-8-6-4-1h-3l1-4-9-2 1 7 3 2-5-1-2-6 1-5 4-1 1-7-4-13-4-5-6-4-13-5-4-5-2-1-3-5-6-3-2-6-5-2v-4h-15l-11-4v-3l-5-1-1-2-1 1-7 1-1 8h-4v-6l3-4 3-5-15 5-7 1-3 5-6 5h-2l-3-5-6-1-10 1-6-7-1-2v-6l5-9v-5l-4-3-14-1v-4l4-7 5-5 11-3 13 5 8 5-1 3 7-1 2 3 8 1 1-2 2 4-9-1v2h10l2 2 8-1h12v2l3 2h5l-1-6-3-2v-2l-10-2h-5l1 3-18-2v-3l-9-3-13-6-4-2h-15l-1-2-13 1-10 8h-13l-3-4v-10l2-7 5-5 6-9 10-3 7-1h13l3-2h12l3 2h5l4 4-1 9 1 6 5-1 2-18 3-5 9-5 16-4 6-8 12-6h10l3 1-1-3 2-3 19-2-1 3 3 1 15-2v-1l-9-1-3-4v-2l2-1-5-2 1-2 13 2 7 1 11-1-1-4-6-2-6-4z" fill="#FEFEFE"/>
<path transform="translate(1416,745)" d="m0 0h51l6 3 3 6v102l-1 1h-19l-1-1v-27h-70v27l-1 1h-19l-1-1v-60l3-15 6-12 9-10 9-7 13-5z" fill="#3BDBC0"/>
<path transform="translate(787,745)" d="m0 0h51l5 3 3 3v106h-20v-28h-70v27l-1 1h-19l-1-1v-62l4-16 6-11 11-11 10-6 13-4z" fill="#3BDBC0"/>
<path transform="translate(938,918)" d="m0 0h51l6 3 2 3v105h-20v-27h-70v27h-20v-67l4-12 6-11 10-10 10-6 13-4z" fill="#006197"/>
<path transform="translate(1195,745)" d="m0 0h80l8 2 6 4 6 7 2 6v27l-4 11-6 8-10 7-9 3-6 1 12 11 11 9 11 10 5 4v2h-30l-11-9-11-10-11-9-9-8-15-1v-20l48-1 8-3 5-6 1-4v-17l-1-2-68-1v90l-1 1h-20v-104l3-5z" fill="#3BDBC0"/>
<path transform="translate(717,918)" d="m0 0h81l9 3 8 7 4 10v25l-4 12-9 10-8 5-14 4 12 11 11 9 11 10 5 5h-31l-10-9-11-9-11-10-9-7-15-1v-20l48-1 8-3 5-6 1-3v-21h-70v90h-20v-103l4-6z" fill="#006297"/>
<path transform="translate(909,745)" d="m0 0h27l9 10 9 11 13 15 3 3 24-28 8-10 2-1h26l-1 4-10 11-9 11-9 10-9 11-7 8 2 5 11 12 9 11 9 10 9 11 5 6v2h-27l-13-15-12-14-7-8v-2l-6 5-9 11-13 15-7 8h-27l2-4 36-42 7-8-1-4-9-11-13-15-12-14-10-12z" fill="#3BDBC0"/>
<path transform="translate(1250,918)" d="m0 0h92v21h-80l1 66 3 3 76 1v20h-78l-9-3-9-8-4-8-1-7v-76l3-6z" fill="#026698"/>
<path transform="translate(1059,918)" d="m0 0h21l5 8 34 70 3-4 15-30 11-23 10-20 1-1h22l-2 6-21 42-11 23-19 38-6 4-7-1-5-5-19-38-11-23-15-30-6-13z" fill="#006297"/>
<path transform="translate(536,918)" d="m0 0h108v20l-1 1h-43v90h-20v-90h-44l-1-1v-19z" fill="#016397"/>
<path transform="translate(581,745)" d="m0 0h92v21h-80v90l-1 1h-19l-1-1v-102l3-6z" fill="#3BDBC0"/>
<path transform="translate(1411,918)" d="m0 0h20v91h82v20h-96l-5-4-1-2z" fill="#006197"/>
<path transform="translate(934,939)" d="m0 0h43v43h-70v-17l4-11 7-8 12-6z" fill="#FEFEFE"/>
<path transform="translate(785,766)" d="m0 0h41v43h-70v-17l4-10 5-7 10-6z" fill="#FEFEFE"/>
<path transform="translate(1414,766)" d="m0 0h41v43h-70v-16l4-11 7-8 8-5z" fill="#FEFEFE"/>
<path transform="translate(1093,745)" d="m0 0h20l1 1v110l-1 1h-20z" fill="#3BDBC0"/>
<path transform="translate(1248,77)" d="m0 0h6l1 3-3 11 1 4-1 6-1 13-1 2-1 10-3 5-2 10-8 8-12 9-5 1-10-11 3-9 8-20 12-23 8-12z" fill="#3BDBC0"/>
<path transform="translate(601,791)" d="m0 0h64v20h-64z" fill="#3BDBC0"/>
<path transform="translate(1270,964)" d="m0 0h63v20h-63z" fill="#006197"/>
<path transform="translate(868,1110)" d="m0 0 9 1 4 2 2 3 1 5v20l-2 6-4 4-4 1h-8l-7-3-3-5v-25l3-6 3-2z" fill="#036799"/>
<path transform="translate(698,1111)" d="m0 0h20l6 4 1 2v28l-4 5-2 1h-21z" fill="#026799"/>
<path transform="translate(1249,1110)" d="m0 0 9 1 5 4 1 3v26l-3 5-7 3h-8l-5-2-4-5v-28l4-5z" fill="#016397"/>
<path transform="translate(1038,1110)" d="m0 0h7l6 3 2 4v4h-7l-2-3h-5l-1 1v5l1 1 18 1 1 1v5l-5 1 1 9 1 2 3 1v7l-6-1-3-2-4 3h-10l-5-3-2-3v-11l5-5-3-4-1-6 3-6z" fill="#036799"/>
<path transform="translate(1283,1111)" d="m0 0h16l6 3 2 4v13l-5 5 2 5 5 10h-9l-7-12v-2h-3v14h-7z" fill="#016397"/>
<path transform="translate(986,1111)" d="m0 0h16l5 3 3 4v12l-4 5-2 2 8 14h-9l-7-12v-2h-3v14h-7z" fill="#016498"/>
<path transform="translate(1157,1111)" d="m0 0h16l6 3 3 7v8l-3 7-7 3h-8v12h-7z" fill="#016498"/>
<path transform="translate(776,1111)" d="m0 0h12l5 4 1 7h-6l-3-4h-8v8l12 2 5 3 1 2v12l-4 5-5 2h-8l-7-3-3-6 1-3h6l3 4h9v-9l-13-2-4-4-1-2v-10l5-5z" fill="#016598"/>
<path transform="translate(1114,1111)" d="m0 0h8l4 11v3h2l1-7 3-7h8l-3 9-4 9 1 6 7 15v1h-8l-4-8-1-6h-2l-1 6-4 8h-8l5-12 3-9-7-17z" fill="#016498"/>
<path transform="translate(944,1111)" d="m0 0h23v6l-15 1v9l13 1v6l-13 1v9l16 1v6h-24z" fill="#006197"/>
<path transform="translate(1326,1111)" d="m0 0h23v6h-16v11h14v6h-14v11h17v6h-24z" fill="#006197"/>
<path transform="translate(1075,1111)" d="m0 0h23v6h-16v11h14v6h-14v11h17v6h-24z" fill="#006197"/>
<path transform="translate(820,1111)" d="m0 0h12l5 3 3 5v4h-7l-2-4-7-1-3 2v23l2 1h7l3-5h7l-1 7-4 4-2 1h-14l-5-4-1-2v-28l4-5z" fill="#006297"/>
<path transform="translate(899,1111)" d="m0 0h7l3 7 4 18 1 2 5-22 2-5h7l-2 11-8 29h-8l-3-8-8-30z" fill="#016498"/>
<path transform="translate(914,247)" d="m0 0h11l12 6 5 2 9 4v3h8l10 2-2-4h6l10 3 4 4 1 6-1 1h-5l-4-4h-14l-5 1-2-2h-8l-2-1v-2l9 1-2-3-1 1h-8l-3-3h-6v-3l-14-7-9-2z" fill="#026598"/>
<path transform="translate(1199,1111)" d="m0 0h7l1 33 15 1v6h-23z" fill="#006197"/>
<path transform="translate(1247,1117)" d="m0 0h7l3 3v22l-3 3h-8l-2-3v-22z" fill="#FEFEFE"/>
<path transform="translate(866,1117)" d="m0 0h7l3 2v24l-2 2h-8l-2-1-1-4v-18z" fill="#FEFEFE"/>
<path transform="translate(928,242)" d="m0 0h10l10 5 15 9 1 3h-15l-7-3-13-6-9-4 3-3z" fill="#3BDBC0"/>
<path transform="translate(743,1111)" d="m0 0h8v40h-8z" fill="#07709C"/>
<path transform="translate(706,1118)" d="m0 0h10l2 2v22l-1 2-3 1h-8z" fill="#FEFEFE"/>
<path transform="translate(914,247)" d="m0 0h11l12 6 5 2 9 4v3l3 1-1 2h-8l-3-3h-6v-3l-14-7-9-2z" fill="#036799"/>
<path transform="translate(1164,1118)" d="m0 0h8l2 2v9l-3 3h-6l-1-1z" fill="#FEFEFE"/>
<path transform="translate(924,245)" d="m0 0h8l10 4 8 6-1 2h-6l-2-2-10-4-9-4z" fill="#FEFEFE"/>
<path transform="translate(1039,1133)" d="m0 0h7v10l-2 2h-7l-2-3 1-7z" fill="#FEFEFE"/>
<path transform="translate(1290,1118)" d="m0 0h8l2 3v6l-2 3h-8z" fill="#FEFEFE"/>
<path transform="translate(993,1118)" d="m0 0h7l2 2v8l-2 2h-7z" fill="#FEFEFE"/>
<path transform="translate(1053,369)" d="m0 0 9 1 1 4-2 3-4 1-4-2-1-4z" fill="#3BDBC0"/>
<path transform="translate(833,219)" d="m0 0h1l-1 16-1 5h-2l-2-7 1-5-1-4z" fill="#056C9A"/>
<path transform="translate(930,265)" d="m0 0 8 1 2 3-1 1h-7l-3-4z" fill="#3BDBC0"/>
<path transform="translate(991,269)" d="m0 0 8 1 1 4-6-1-3-2z" fill="#07719C"/>
</svg>
